<svg xmlns="http://www.w3.org/2000/svg" viewBox="0 0 1024 1024"><defs><radialGradient id="g" cx="512" cy="512" r="512" gradientUnits="userSpaceOnUse"><stop offset="25%" stop-color="#9C702A"/><stop offset="100%" stop-color="#695823"/></radialGradient><clipPath id="c"><circle cx="512" cy="512" r="512"/></clipPath></defs><circle cx="512" cy="512" r="512" fill="url(#g)"/><g clip-path="url(#c)" transform="translate(0 960) scale(1 -1)"><path d="M512 862 511 861 506 858Q500 855 495.5 851.5Q491 848 487 844Q483 840 480.5 836.5Q478 833 476 830L475 829Q474 827 473.0 825.5Q472 824 472 822L404 755Q400 753 396.5 750.5Q393 748 390 745Q389 744 388.0 743.0Q387 742 387 741H219V574Q218 573 217.0 572.0Q216 571 215 570Q211 567 208.5 563.0Q206 559 204 554L140 490Q137 489 134.5 488.0Q132 487 130 486Q125 483 121.0 480.0Q117 477 114 473Q110 469 106.5 464.5Q103 460 100 456L97 449L100 442Q103 437 106.5 432.5Q110 428 114 423Q117 420 121.0 417.0Q125 414 129 412V411H130Q132 410 134.0 409.0Q136 408 138 407L203 342Q203 342 203.5 342.0Q204 342 204 342Q206 337 209.0 333.0Q212 329 215 326Q216 325 217.0 324.0Q218 323 219 322V155H387Q387 154 388.0 153.0Q389 152 390 151Q393 148 397.0 145.5Q401 143 405 141L471 74Q472 72 473.0 70.5Q474 69 475 67Q478 62 481.0 58.5Q484 55 487 51Q491 47 496.0 43.5Q501 40 506 38L510 36L512 34H513L519 38Q524 41 528.5 44.0Q533 47 537 51Q540 55 543.0 59.0Q546 63 549 66V67Q550 69 551.0 70.5Q552 72 553 74L618 140Q618 140 618.0 140.0Q618 140 619 140Q624 142 628.0 145.0Q632 148 635 151Q636 152 637.0 153.0Q638 154 639 155H805V321Q806 322 807.5 323.0Q809 324 810 326Q814 329 817.0 333.5Q820 338 822 343Q822 343 822.0 343.5Q822 344 823 344L886 407Q888 408 890.5 409.0Q893 410 895 412Q899 414 902.5 417.0Q906 420 909 423Q913 427 916.5 432.0Q920 437 924 442L928 449L923 456Q920 461 916.5 465.5Q913 470 909 473Q906 477 902.5 479.5Q899 482 895 485L894 486Q892 487 889.5 488.0Q887 489 885 490L822 552Q822 552 822.0 552.0Q822 552 822 553Q820 558 817.0 562.5Q814 567 811 570Q810 572 808.5 573.0Q807 574 805 575V741H639Q638 742 637.0 743.0Q636 744 636 744Q632 748 628.0 751.0Q624 754 619 756L553 822Q552 824 551.0 826.0Q550 828 549 829Q546 833 543.0 837.0Q540 841 537 844Q533 848 529.0 851.5Q525 855 520 858L513 862H512Z" fill="#9D702A"/><path d="M634 179Q632 185 629.0 190.5Q626 196 623 202L632 211Q636 204 639.0 197.5Q642 191 646 184Q647 182 648.0 180.0Q649 178 650 175H636Q635 176 635.0 177.0Q635 178 634 179ZM388 175H375Q376 177 377.0 179.0Q378 181 379 184Q382 190 385.5 197.0Q389 204 392 211L401 202Q399 196 396.0 190.5Q393 185 390 179Q390 178 389.5 177.0Q389 176 388 175ZM390 717Q393 711 396.0 705.5Q399 700 401 694L392 685Q389 692 385.5 699.0Q382 706 379 712Q378 714 377.0 716.0Q376 718 375 721H388Q389 720 389.5 719.0Q390 718 390 717ZM636 721H649Q648 719 647.0 716.5Q646 714 645 712Q642 706 638.5 699.0Q635 692 632 686L623 694Q626 700 629.0 705.5Q632 711 634 717Q635 718 635.0 719.0Q635 720 636 721ZM785 253Q777 258 769.0 263.5Q761 269 753 276Q745 281 737.0 287.0Q729 293 721 298L729 307Q737 301 744.5 296.0Q752 291 760 286Q767 282 773.0 277.5Q779 273 786 268V253ZM785 571Q784 571 783.5 570.5Q783 570 782 570Q776 567 770.0 564.5Q764 562 758 559L749 568Q756 571 762.5 574.5Q769 578 776 581Q778 582 780.5 583.0Q783 584 785 585ZM785 589Q783 587 780.5 586.0Q778 585 776 583Q769 580 762.0 576.5Q755 573 748 569L740 577Q748 581 755.0 585.5Q762 590 770 594Q774 596 778.0 598.5Q782 601 785 603ZM785 608Q781 605 776.5 602.5Q772 600 768 598Q760 593 752.5 588.5Q745 584 737 580L729 588Q737 593 745.0 598.0Q753 603 761 608Q767 612 773.0 616.0Q779 620 785 623V608ZM785 627Q779 623 772.5 618.5Q766 614 760 610Q752 605 744.0 599.5Q736 594 728 589L720 597Q728 602 736.0 608.0Q744 614 752 620Q760 625 768.0 631.0Q776 637 785 643V627ZM785 649 751 622 718 598 711 606Q719 613 727.0 619.5Q735 626 743 632Q754 640 764.5 648.0Q775 656 785 664ZM785 274Q779 277 773.5 281.0Q768 285 762 288Q754 293 746.0 298.0Q738 303 730 309L738 317Q746 312 753.0 308.0Q760 304 768 299Q772 297 776.5 294.5Q781 292 785 289ZM785 293Q781 295 777.0 297.5Q773 300 770 302Q762 306 755.0 310.0Q748 314 740 319L748 327Q755 323 762.0 319.5Q769 316 775 313Q778 311 780.0 310.0Q782 309 785 307V293ZM785 311Q783 312 781.0 313.0Q779 314 776 315Q770 318 763.5 321.5Q757 325 750 328L759 337Q764 334 770.0 331.5Q776 329 782 326Q783 326 783.5 325.5Q784 325 785 325ZM793 371Q794 371 795.0 370.5Q796 370 797 370Q802 369 806.0 367.5Q810 366 815 365L805 355Q802 356 799.0 356.5Q796 357 794 358Q791 359 788.5 360.0Q786 361 783 362ZM798 373Q797 373 796.5 373.0Q796 373 795 373L805 384Q811 382 817.0 381.0Q823 380 828 379L818 368Q813 369 808.0 370.5Q803 372 798 373ZM808 387 819 397 843 393 832 383Q826 383 820.0 384.5Q814 386 808 387ZM822 401 834 412Q840 411 846.5 410.5Q853 410 859 409L848 397Q841 398 834.5 399.0Q828 400 822 401ZM838 416 850 428 876 426 864 414ZM854 433 867 445Q874 445 880.5 445.0Q887 445 894 445L882 432Q875 432 868.0 432.0Q861 432 854 433ZM867 451 854 463Q861 463 867.5 463.5Q874 464 882 464L894 451Q888 451 881.0 451.0Q874 451 867 451ZM850 468 838 480 864 482 876 470ZM834 484 822 495Q828 496 834.5 497.0Q841 498 847 499L859 487Q853 487 846.5 486.0Q840 485 834 484ZM819 499 808 509Q814 510 820.0 511.5Q826 513 832 514L842 503Q837 502 831.0 501.0Q825 500 819 499ZM805 512 795 522Q796 522 796.5 522.5Q797 523 798 523Q803 524 808.0 525.0Q813 526 818 527L829 517Q823 516 817.0 515.0Q811 514 805 512ZM797 526Q796 526 795.0 525.5Q794 525 793 525L783 534Q786 535 788.5 536.0Q791 537 794 538Q796 539 799.0 539.5Q802 540 805 541L815 531Q810 530 806.0 529.0Q802 528 797 526ZM793 541 780 537 771 546Q776 548 780.0 549.5Q784 551 789 553Q790 554 790.5 554.0Q791 554 792 554L801 545Q799 543 797.0 542.5Q795 542 793 541ZM788 556Q783 554 778.5 552.0Q774 550 770 548L761 557Q766 560 772.0 562.5Q778 565 784 567Q784 567 784.5 567.5Q785 568 786 568V561L791 556Q790 556 789.0 556.0Q788 556 788 556ZM741 635Q733 629 725.0 622.0Q717 615 709 608L701 616Q709 623 717.0 630.5Q725 638 733 645Q746 656 758.5 667.0Q771 678 785 689V672Q774 663 763.5 653.5Q753 644 741 635ZM785 697Q772 685 758.5 672.0Q745 659 731 647Q724 640 716.0 632.5Q708 625 700 618L692 626Q699 633 706.5 641.0Q714 649 723 656Q738 671 754.0 686.0Q770 701 785 716ZM721 658Q713 651 705.5 643.0Q698 635 690 627L682 635Q689 643 696.5 651.0Q704 659 711 667Q724 681 736.5 694.5Q749 708 762 721H780Q766 705 751.0 689.5Q736 674 721 658ZM709 669Q702 661 695.0 653.0Q688 645 681 637L673 645Q679 653 686.0 661.5Q693 670 700 678Q709 689 718.0 699.5Q727 710 737 722H754Q743 708 731.5 695.0Q720 682 709 669ZM697 679Q690 671 683.5 663.0Q677 655 671 647L664 654L688 686L714 721H731Q722 710 713.5 700.0Q705 690 697 679ZM685 688Q679 680 673.0 672.0Q667 664 662 655L654 664Q659 672 664.5 679.5Q670 687 675 695Q679 702 683.5 708.0Q688 714 692 721H708Q702 713 696.0 704.5Q690 696 685 688ZM672 697Q667 689 662.0 681.0Q657 673 652 665L644 674Q649 681 653.0 688.5Q657 696 662 703Q664 708 667.0 712.0Q670 716 673 721H687Q683 715 679.5 709.0Q676 703 672 697ZM659 705Q654 697 650.0 690.0Q646 683 642 675L634 683Q637 690 640.5 696.5Q644 703 648 710Q649 713 650.5 715.5Q652 718 653 720H667Q665 717 663.0 713.0Q661 709 659 705ZM601 716 605 728Q606 731 607.0 733.0Q608 735 609 738L618 728Q618 727 617.5 726.0Q617 725 617 725Q615 720 613.5 716.0Q612 712 611 707ZM603 729Q602 726 601.0 723.5Q600 721 599 718L590 728Q590 729 590.5 730.0Q591 731 591 732Q593 737 594.0 741.0Q595 745 597 750L607 740Q605 737 604.0 734.5Q603 732 603 729ZM588 734Q588 733 587.5 732.0Q587 731 587 731L576 741Q578 747 579.0 752.5Q580 758 582 764L593 753Q591 748 590.0 743.5Q589 739 588 734ZM574 744 563 755 567 779 578 768Q577 762 576.0 756.0Q575 750 574 744ZM559 758 548 769Q549 776 549.5 782.0Q550 788 551 795L563 783Q562 777 561.5 770.5Q561 764 559 758ZM545 773 533 786 535 812 547 800ZM528 790 515 802Q516 809 516.0 816.0Q516 823 516 830L529 817Q529 811 528.5 804.0Q528 797 528 790ZM510 802 497 790Q497 797 496.5 803.5Q496 810 496 817L509 830Q509 823 509.5 816.0Q510 809 510 802ZM492 786 480 773 478 800 490 812ZM477 769 465 758Q464 764 463.5 770.5Q463 777 462 783L473 794Q474 788 475.0 782.0Q476 776 477 769ZM462 755 451 744Q450 750 448.5 756.0Q447 762 446 767L457 778Q459 773 460.0 767.0Q461 761 462 755ZM448 741 438 731Q438 732 438.0 732.5Q438 733 438 734Q437 739 435.5 744.0Q434 749 433 754L444 765Q445 759 446.0 753.0Q447 747 448 741ZM434 733Q435 732 435.0 730.5Q435 729 436 728L426 719Q425 722 424.5 724.5Q424 727 423 730Q422 733 421.0 735.5Q420 738 419 741L429 751Q430 746 431.5 742.0Q433 738 434 733ZM419 729 423 717 414 707Q412 712 410.5 716.0Q409 720 407 725Q407 726 406.5 726.5Q406 727 406 728L416 738Q417 735 417.5 733.0Q418 731 419 729ZM239 324Q241 325 241.5 325.0Q242 325 243 325Q249 328 254.5 331.0Q260 334 266 336L275 327Q269 324 262.0 320.5Q255 317 248 314Q246 313 244.0 312.0Q242 311 239 310ZM239 643Q248 638 256.0 632.0Q264 626 273 620Q281 615 289.0 609.0Q297 603 305 598L297 589Q289 595 281.0 600.0Q273 605 265 610Q259 615 252.5 619.0Q246 623 239 628ZM239 622Q246 619 252.0 615.0Q258 611 264 608Q272 603 279.5 598.0Q287 593 295 588L287 579Q279 584 272.0 588.0Q265 592 257 597Q252 599 248.0 602.0Q244 605 239 608ZM239 604Q244 602 248.0 599.5Q252 597 256 595Q263 591 270.5 587.0Q278 583 285 578L277 569Q270 573 263.0 576.5Q256 580 250 583Q247 585 244.5 586.0Q242 587 239 589ZM239 585Q242 584 244.0 583.0Q246 582 248 581Q255 578 261.5 574.5Q268 571 275 568L266 559Q261 562 255.0 564.5Q249 567 244 570Q243 570 242.0 570.5Q241 571 240 572V585ZM239 307Q242 308 244.5 309.0Q247 310 249 312Q256 315 262.5 319.0Q269 323 277 326L285 318Q277 314 269.5 309.5Q262 305 254 301Q250 299 246.0 296.5Q242 294 239 292V307ZM239 288Q244 290 248.0 292.5Q252 295 257 298L287 317L295 309Q287 303 279.5 298.0Q272 293 264 288Q258 285 252.0 281.0Q246 277 240 274V288ZM239 268Q246 273 252.5 277.0Q259 281 265 285Q273 290 281.0 295.5Q289 301 297 306L305 298Q297 292 288.5 286.0Q280 280 272 274Q264 269 256.0 263.0Q248 257 239 251ZM239 247Q248 253 256.5 259.5Q265 266 274 272Q282 278 290.0 284.0Q298 290 306 296L314 289Q306 282 297.5 275.5Q289 269 281 263Q270 255 259.5 246.5Q249 238 239 230V247ZM376 711Q380 704 383.5 697.0Q387 690 390 683L382 675Q378 683 374.0 690.5Q370 698 365 705Q363 709 361.0 713.0Q359 717 357 721H371Q372 718 373.5 715.5Q375 713 376 711ZM363 703Q367 696 371.5 688.5Q376 681 380 673L372 665Q367 673 362.0 681.0Q357 689 352 697Q348 703 344.5 709.0Q341 715 337 720H352Q355 716 357.5 712.0Q360 708 363 703ZM349 695Q354 687 359.5 679.5Q365 672 370 664L362 655Q357 664 351.0 672.0Q345 680 339 688Q334 696 328.0 704.0Q322 712 316 720H332Q336 714 340.5 708.0Q345 702 349 695ZM337 686 361 654 353 646Q347 654 340.5 662.0Q334 670 327 679Q319 689 311.0 699.5Q303 710 295 721H311ZM325 677Q332 669 338.5 661.0Q345 653 352 645L344 637L316 669Q305 682 293.5 695.0Q282 708 271 721H289Q297 710 306.0 699.0Q315 688 325 677ZM313 667Q321 659 328.0 651.0Q335 643 342 635L334 628Q327 635 319.5 643.0Q312 651 304 659Q290 674 275.0 689.5Q260 705 245 722H262Q275 707 287.5 694.0Q300 681 313 667ZM302 656Q310 649 317.5 641.0Q325 633 333 626L326 618Q318 626 310.0 633.0Q302 640 294 647Q280 660 266.5 672.5Q253 685 239 699V716Q255 701 270.5 686.0Q286 671 302 656ZM291 645Q299 638 307.0 630.5Q315 623 323 616L315 608Q307 615 299.0 621.5Q291 628 283 635Q271 644 260.0 653.5Q249 663 239 672V689Q252 678 265.5 667.0Q279 656 291 645ZM281 633Q289 626 297.5 619.5Q306 613 314 607L306 599L273 623L239 649V666Q250 658 260.5 649.5Q271 641 281 633ZM239 561V569Q240 569 240.5 568.5Q241 568 242 568Q247 565 252.5 563.0Q258 561 264 558L255 550Q250 552 245.5 553.5Q241 555 237 557Q236 557 235.5 557.5Q235 558 235 558ZM236 552Q240 551 244.5 549.5Q249 548 254 546L244 537L232 541Q230 542 227.5 542.5Q225 543 223 544L233 554Q233 554 234.0 553.5Q235 553 236 552ZM231 538Q233 537 236.0 536.0Q239 535 242 534L232 525Q231 525 230.0 525.5Q229 526 227 526Q223 527 218.5 528.5Q214 530 210 531L220 541Q222 540 225.0 539.5Q228 539 231 538ZM227 523 229 522 219 512Q213 514 207.0 515.0Q201 516 196 517L206 528Q212 527 217.0 525.5Q222 524 227 523ZM216 509 205 499 181 503 192 513Q198 512 204.0 511.0Q210 510 216 509ZM202 495 190 484Q184 485 177.5 485.5Q171 486 165 487L176 499Q183 498 189.5 497.0Q196 496 202 495ZM187 480 175 468 149 470 161 482ZM170 463 157 450Q150 450 143.5 450.5Q137 451 130 451L142 463Q150 463 156.5 463.0Q163 463 170 463ZM158 445 171 433Q164 433 157.0 432.5Q150 432 143 432L130 445Q137 445 144.0 445.0Q151 445 158 445ZM175 428 188 416 161 414 149 426ZM191 412 202 400Q196 399 190.0 398.5Q184 398 178 397L166 408Q172 409 178.5 410.0Q185 411 191 412ZM206 397 217 387Q211 386 205.0 384.5Q199 383 193 382L182 393Q188 394 194.0 395.0Q200 396 206 397ZM219 384 229 374Q228 374 227.5 373.5Q227 373 226 373Q221 372 216.5 371.0Q212 370 206 369L196 379Q202 380 208.0 381.0Q214 382 219 384ZM227 369Q229 370 230.0 370.0Q231 370 233 371L242 361Q239 360 236.5 359.0Q234 358 231 358Q228 357 225.5 356.0Q223 355 221 354L211 364Q215 366 219.0 367.0Q223 368 227 369ZM231 354Q234 355 237.5 356.0Q241 357 244 358L254 349Q249 347 244.5 345.5Q240 344 236 342Q236 342 235.0 341.5Q234 341 233 341L223 351Q225 352 227.0 353.0Q229 354 231 354ZM237 340Q241 342 246.0 344.0Q251 346 256 348L264 339Q259 336 253.0 333.5Q247 331 242 329Q241 329 240.5 328.5Q240 328 239 328V335L235 340Q235 340 235.5 340.0Q236 340 237 340ZM283 260Q291 267 299.5 273.5Q308 280 316 287L324 279L291 251Q278 239 265.5 228.0Q253 217 239 206V224Q251 233 261.5 242.0Q272 251 283 260ZM239 198Q253 211 266.5 223.5Q280 236 293 249Q301 256 309.0 263.0Q317 270 325 278L332 270Q325 263 317.0 255.0Q309 247 301 240Q286 225 270.5 210.0Q255 195 239 181V198ZM304 238Q312 245 319.5 253.0Q327 261 334 269L342 261Q335 253 327.5 245.0Q320 237 313 230Q300 216 287.5 202.5Q275 189 262 176H245Q259 191 274.0 206.5Q289 222 304 238ZM316 227 344 259 352 251Q345 243 338.5 235.0Q332 227 325 219Q316 208 307.0 197.0Q298 186 288 175H270Q282 188 293.0 201.0Q304 214 316 227ZM327 217Q334 225 340.5 233.5Q347 242 353 250L361 242L337 210Q331 201 324.5 192.5Q318 184 312 175H295Q303 186 311.0 196.0Q319 206 327 217ZM339 207Q345 216 351.0 224.0Q357 232 362 240L370 232Q365 224 359.5 216.0Q354 208 349 200Q345 194 340.5 187.5Q336 181 332 174H316Q322 183 328.0 191.0Q334 199 339 207ZM352 199Q357 207 362.0 214.5Q367 222 372 230L380 222L362 192Q360 187 357.0 183.0Q354 179 351 174H337Q341 181 344.5 187.0Q348 193 352 199ZM365 191Q370 198 374.0 205.5Q378 213 382 221L391 212Q388 205 384.0 198.5Q380 192 377 185Q375 182 374.0 179.5Q373 177 372 174H357Q359 179 361.0 183.0Q363 187 365 191ZM423 180 419 168Q418 166 417.5 163.5Q417 161 416 159L406 169Q406 170 406.5 170.5Q407 171 407 172Q409 177 410.5 181.0Q412 185 414 190ZM422 166Q423 169 423.5 172.0Q424 175 425 178L435 168Q434 167 434.0 166.0Q434 165 434 164Q433 159 431.5 155.0Q430 151 429 146L419 156Q420 158 421.0 161.0Q422 164 422 166ZM437 162Q437 163 437.5 163.5Q438 164 438 165L448 155Q447 149 445.5 143.5Q444 138 443 132L432 143Q434 147 435.0 152.0Q436 157 437 162ZM451 152 462 141 458 117 447 128Q447 134 448.5 140.0Q450 146 451 152ZM465 138 477 127Q476 120 475.0 114.0Q474 108 473 101L462 113Q462 119 463.0 125.5Q464 132 465 138ZM481 123 493 110 491 84 479 96Q479 103 479.5 109.5Q480 116 481 123ZM497 106 510 94Q510 87 509.5 80.0Q509 73 509 66L496 79Q496 85 496.5 92.0Q497 99 497 106ZM515 94 528 106Q528 99 528.5 92.5Q529 86 529 79L516 66Q516 73 516.0 80.0Q516 87 515 94ZM533 111 545 123 547 97 535 85ZM549 127 560 138Q561 132 562.0 125.5Q563 119 564 113L552 102Q551 108 550.0 114.5Q549 121 549 127ZM563 141 574 152Q575 146 576.0 140.0Q577 134 578 129L568 118Q566 123 565.0 129.0Q564 135 563 141ZM576 155 586 165Q586 165 586.5 164.0Q587 163 587 162Q588 157 589.5 152.0Q591 147 592 142L581 131Q581 137 579.5 143.0Q578 149 576 155ZM590 163Q590 164 590.0 165.5Q590 167 589 168L599 177Q600 175 600.5 172.0Q601 169 602 166Q603 164 603.5 161.0Q604 158 605 156L595 146Q594 150 593.0 154.5Q592 159 590 163ZM605 168 601 180 611 189Q612 185 613.5 180.5Q615 176 617 172Q618 171 618.0 170.0Q618 169 619 168L609 159Q608 161 607.0 163.0Q606 165 605 168ZM648 185Q644 192 640.5 199.0Q637 206 634 212L642 220Q646 213 650.0 205.5Q654 198 659 191Q661 187 663.0 183.0Q665 179 667 175H653Q652 178 650.5 180.5Q649 183 648 185ZM661 193Q657 200 652.5 207.5Q648 215 644 222L652 230Q657 222 662.0 214.5Q667 207 672 199Q676 193 679.5 187.0Q683 181 687 175H672Q669 180 666.5 184.0Q664 188 661 193ZM675 201Q670 209 664.5 216.5Q659 224 654 232L662 241Q667 232 673.0 224.0Q679 216 685 208Q690 200 696.0 192.0Q702 184 708 176H692Q688 182 683.5 188.0Q679 194 675 201ZM687 210 663 242 671 249Q677 241 683.5 233.0Q690 225 696 216Q704 206 712.5 195.5Q721 185 729 174H712Q707 184 700.5 192.5Q694 201 687 210ZM700 219Q693 227 686.0 235.0Q679 243 673 251L681 259L709 227Q720 214 731.0 201.0Q742 188 754 175H736Q727 186 718.0 197.0Q709 208 700 219ZM712 229Q705 237 697.5 245.0Q690 253 683 261L691 269Q698 261 706.0 253.0Q714 245 721 238Q736 222 751.0 206.5Q766 191 781 175H763Q750 189 737.0 202.0Q724 215 712 229ZM723 240Q715 247 707.5 255.0Q700 263 692 270L700 278Q708 271 715.5 263.5Q723 256 731 249Q745 237 758.5 224.0Q772 211 785 199V181Q770 195 754.0 210.0Q738 225 723 240ZM733 251 701 280 709 288Q717 281 725.0 274.5Q733 268 741 261Q753 252 763.5 242.5Q774 233 785 224V207Q772 218 759.0 229.0Q746 240 733 251ZM743 263Q735 270 727.0 276.5Q719 283 711 289L718 296Q727 290 735.0 284.0Q743 278 751 272L785 246V230Q775 239 764.5 247.0Q754 255 743 263ZM785 335V328Q785 328 784.5 328.5Q784 329 783 329Q778 331 772.0 333.5Q766 336 760 339L769 348Q774 346 778.5 344.0Q783 342 787 340Q788 340 788.5 340.0Q789 340 789 340ZM789 344Q784 345 780.0 346.5Q776 348 771 350L780 360L793 356Q795 355 797.0 354.0Q799 353 801 352L792 343Q791 342 790.5 342.5Q790 343 789 344ZM632 721Q632 720 632.0 719.5Q632 719 632 719Q629 713 626.5 707.5Q624 702 622 697L613 705Q615 710 617.0 714.5Q619 719 621 724Q621 724 621.0 724.5Q621 725 621 726L626 721ZM404 726Q404 725 404.5 724.5Q405 724 405 724Q407 719 408.5 714.5Q410 710 412 705L403 696Q401 701 398.5 707.0Q396 713 393 719Q393 719 392.5 719.5Q392 720 392 721H400ZM392 175Q392 176 392.5 176.5Q393 177 393 177Q396 183 398.5 189.0Q401 195 403 200L412 191Q410 187 408.5 182.5Q407 178 405 172Q405 172 404.5 171.5Q404 171 404 170L399 175ZM621 170Q621 171 620.5 171.5Q620 172 620 172Q618 177 616.5 181.5Q615 186 613 191L621 199Q624 194 626.5 188.5Q629 183 632 177Q632 176 632.0 175.5Q632 175 632 174H626ZM152 478Q155 478 157.0 477.0Q159 476 161 474Q163 471 164.5 469.0Q166 467 167 464Q169 460 170.0 456.5Q171 453 172 449Q171 444 169.5 440.0Q168 436 167 433Q166 430 164.5 427.5Q163 425 161 423Q159 420 157.0 419.0Q155 418 152 418Q148 418 144.0 419.5Q140 421 136 423Q133 425 129.5 427.5Q126 430 123 433Q120 436 117.0 440.0Q114 444 112 449Q114 453 117.0 456.5Q120 460 123 464Q126 467 129.5 469.5Q133 472 136 474Q140 476 144.0 477.0Q148 478 152 478ZM235 431Q230 430 225.5 429.0Q221 428 217 426Q214 424 210.5 421.0Q207 418 205 414Q202 410 200.5 404.0Q199 398 199 390Q195 392 191.0 394.0Q187 396 184 398Q180 400 177.5 402.0Q175 404 172 407Q170 409 169.0 412.0Q168 415 168 418Q169 418 171.0 418.5Q173 419 175 421Q176 422 177.5 423.5Q179 425 180 428Q181 430 182.0 434.0Q183 438 184 443V453Q183 458 182.0 462.0Q181 466 180 469Q179 471 177.5 473.0Q176 475 175 476Q173 477 171.0 477.5Q169 478 168 478Q168 481 169.0 483.5Q170 486 172 489Q175 491 177.5 493.5Q180 496 184 498Q187 500 191.0 502.0Q195 504 199 506Q199 498 200.5 492.0Q202 486 205 482Q207 478 210.5 475.0Q214 472 217 470Q221 468 225.5 467.0Q230 466 235 465Q249 466 260.5 467.0Q272 468 282 469Q292 470 300.5 471.0Q309 472 316 473Q315 471 313.5 469.5Q312 468 311 466Q308 463 306.5 458.5Q305 454 303 450Q303 449 303.0 448.0Q303 447 303 447Q305 441 307.0 436.5Q309 432 311 429Q312 427 313.5 425.5Q315 424 316 423Q309 424 300.5 425.0Q292 426 282 427Q272 428 260.5 429.0Q249 430 235 431ZM795 405Q802 404 806.0 401.0Q810 398 812 394Q814 390 815.0 384.0Q816 378 815 370Q814 363 812.5 357.5Q811 352 810 348Q808 344 806.0 340.5Q804 337 801 335Q799 332 796.0 330.5Q793 329 790 328Q789 338 787.5 345.5Q786 353 783 359Q781 364 778.5 367.5Q776 371 774 373Q771 376 768.5 376.5Q766 377 764 376Q761 375 758.5 373.5Q756 372 754 370Q750 363 743.5 355.0Q737 347 729 337Q720 328 707.5 322.0Q695 316 678 312Q671 311 664.5 310.5Q658 310 652 310Q652 303 651.5 296.5Q651 290 649 284Q646 267 639.5 254.5Q633 242 624 233Q614 224 606.0 218.0Q598 212 591 207Q589 206 587.5 203.5Q586 201 585 198Q584 195 584.5 192.5Q585 190 588 188Q590 186 593.5 183.5Q597 181 603 179Q608 176 615.5 174.5Q623 173 634 172Q633 169 631.0 166.0Q629 163 626 161Q624 158 620.5 156.0Q617 154 613 152Q608 150 602.5 148.5Q597 147 591 147Q583 146 577.0 147.0Q571 148 567 150Q562 151 559.5 155.5Q557 160 556 167Q554 171 553.5 176.0Q553 181 553 187Q553 193 553.5 199.5Q554 206 555 212Q556 219 557.0 227.0Q558 235 559 243Q568 251 574.0 259.0Q580 267 584 274Q588 281 589.5 287.5Q591 294 591 300Q590 307 585.0 312.0Q580 317 570 321Q568 320 566.5 319.5Q565 319 564 318Q562 317 561.0 316.0Q560 315 559 315Q558 314 557.0 313.5Q556 313 556 312Q552 312 549.0 311.5Q546 311 542 310Q540 310 536.5 309.5Q533 309 529 309Q526 309 522.0 309.0Q518 309 514 309Q509 309 505.0 309.0Q501 309 497 309Q493 309 490.0 309.5Q487 310 484 310Q481 311 477.5 311.5Q474 312 471 312Q469 313 466.5 314.5Q464 316 462 318L456 321Q446 317 440.5 312.0Q435 307 435 300Q434 294 436.0 287.5Q438 281 442 274Q446 267 452.0 259.0Q458 251 467 243Q468 235 469.0 227.5Q470 220 471 212Q472 206 472.5 199.5Q473 193 473 187Q472 181 471.5 176.0Q471 171 469 167Q468 160 465.5 156.0Q463 152 459 150Q455 148 449.0 147.0Q443 146 435 147Q428 147 422.5 148.5Q417 150 412 152Q408 154 405.0 156.5Q402 159 399 161Q397 163 395.0 166.0Q393 169 392 172Q402 173 410.0 174.5Q418 176 423 179Q428 181 432.0 183.5Q436 186 438 188Q440 190 441.0 192.5Q442 195 441 198Q440 201 438.5 203.5Q437 206 434 207Q427 212 419.0 218.0Q411 224 402 233Q392 242 386.0 254.5Q380 267 377 284Q375 290 374.5 296.5Q374 303 374 310Q367 310 360.5 310.5Q354 311 348 312Q331 316 318.0 322.0Q305 328 297 337Q288 347 282.0 355.0Q276 363 271 370Q270 372 267.5 373.5Q265 375 262 376Q259 377 256.5 376.5Q254 376 252 373Q249 371 247.0 367.5Q245 364 242 359Q240 353 238.5 345.5Q237 338 236 328Q233 329 230.0 330.5Q227 332 225 335Q222 337 220.0 340.5Q218 344 216 348Q213 352 212.0 357.5Q211 363 210 370Q210 378 210.5 384.0Q211 390 213 394Q215 399 219.5 401.5Q224 404 231 405Q235 406 239.5 407.0Q244 408 251 408Q257 408 263.0 408.0Q269 408 276 407Q283 406 291.0 404.5Q299 403 307 402Q315 394 323.0 387.5Q331 381 338 377Q345 373 351.5 371.5Q358 370 364 370Q371 371 376.0 376.0Q381 381 385 391L382 397Q380 400 379.0 402.0Q378 404 377 406Q376 410 375.5 413.0Q375 416 375 419Q374 422 374.0 425.5Q374 429 374 432V465Q374 468 374.0 471.5Q374 475 375 478Q375 481 375.5 484.0Q376 487 377 491Q377 491 377.5 492.0Q378 493 379 494Q380 495 380.5 496.0Q381 497 382 499Q383 500 384.0 501.5Q385 503 385 505Q381 515 376.0 520.0Q371 525 364 526Q358 526 351.5 524.5Q345 523 338 519Q331 515 323.0 509.0Q315 503 307 494Q299 493 291.0 492.0Q283 491 276 490Q269 489 263.0 488.5Q257 488 251 488Q244 488 239.5 489.0Q235 490 231 491Q224 492 219.5 495.0Q215 498 213 502Q211 506 210.5 512.0Q210 518 210 526Q211 532 212.0 537.5Q213 543 216 548Q218 552 220.0 555.5Q222 559 225 561Q227 564 230.0 565.5Q233 567 236 568Q237 558 238.5 550.5Q240 543 242 537Q245 532 247.0 528.5Q249 525 252 523Q254 520 256.5 519.5Q259 519 262 520Q265 521 267.5 522.5Q270 524 271 526Q276 533 282.0 541.0Q288 549 297 559Q305 568 318.0 574.0Q331 580 348 584Q354 585 360.5 585.5Q367 586 374 586Q374 593 374.5 599.5Q375 606 377 612Q380 629 386.0 641.5Q392 654 402 663Q411 672 419.0 678.0Q427 684 434 689Q437 690 438.5 692.5Q440 695 441 698Q442 701 441.0 703.5Q440 706 438 708Q436 710 432.0 712.5Q428 715 423 717Q418 720 410.0 721.5Q402 723 392 724Q393 727 395.0 730.0Q397 733 399 735Q402 737 405.0 739.5Q408 742 412 744Q417 745 422.5 746.5Q428 748 435 749Q443 750 449.0 749.0Q455 748 459 746Q463 745 465.5 740.5Q468 736 469 729Q471 725 471.5 720.0Q472 715 473 709Q473 703 472.5 696.5Q472 690 471 684Q470 676 469.0 668.5Q468 661 467 653Q458 645 452.0 637.0Q446 629 442 622Q438 615 436.0 608.5Q434 602 435 596Q435 589 440.5 584.0Q446 579 456 575L462 578Q463 579 464.0 579.5Q465 580 466 581Q468 581 469.0 582.0Q470 583 471 584Q474 584 477.0 584.5Q480 585 484 586Q486 586 489.5 586.5Q493 587 497 587Q500 587 504.5 587.0Q509 587 513 587Q517 587 521.0 587.0Q525 587 529 587Q533 587 536.0 586.5Q539 586 542 586Q545 585 548.5 584.5Q552 584 555 584Q557 582 559.0 580.5Q561 579 564 578Q565 577 566.5 576.5Q568 576 570 575Q580 579 585.0 584.0Q590 589 591 596Q591 602 589.5 608.5Q588 615 584 622Q580 629 574.0 637.0Q568 645 559 653Q558 661 557.0 668.5Q556 676 555 684Q554 690 553.5 696.5Q553 703 553 709Q553 715 553.5 720.0Q554 725 556 729Q557 736 560.0 740.0Q563 744 567 746Q571 748 577.0 749.0Q583 750 591 749Q597 748 602.5 746.5Q608 745 613 744Q617 742 620.5 740.0Q624 738 626 735Q629 733 631.0 730.0Q633 727 634 724Q623 723 615.5 721.5Q608 720 603 717Q597 715 593.5 712.5Q590 710 588 708Q585 706 584.5 703.5Q584 701 585 698Q586 695 587.5 692.5Q589 690 591 689Q598 684 606.5 678.0Q615 672 624 663Q633 654 639.5 641.5Q646 629 649 612Q651 606 651.5 599.5Q652 593 652 586Q658 586 664.5 585.5Q671 585 678 584Q695 580 707.5 574.0Q720 568 729 559Q737 549 743.5 541.0Q750 533 754 526Q756 524 758.5 522.5Q761 521 764 520Q766 519 769.0 519.5Q772 520 774 523Q776 525 778.5 528.5Q781 532 783 537Q786 543 787.5 550.5Q789 558 790 568Q793 567 796.0 565.5Q799 564 801 561Q804 559 806.0 555.5Q808 552 810 548Q811 543 812.5 537.5Q814 532 815 526Q816 518 815.0 512.0Q814 506 812 502Q811 497 806.5 494.5Q802 492 795 491Q791 490 786.0 489.0Q781 488 775 488Q769 488 762.5 488.5Q756 489 750 490Q742 491 734.5 492.0Q727 493 719 494Q710 503 702.5 509.0Q695 515 687 519Q681 523 674.5 524.5Q668 526 661 526Q655 525 649.5 520.0Q644 515 640 505Q641 503 641.5 501.5Q642 500 643 499Q645 496 646.0 494.0Q647 492 649 490Q650 487 650.0 483.5Q650 480 651 477Q652 474 652.0 471.0Q652 468 652 464Q653 461 653.0 457.0Q653 453 653 448Q653 444 653.0 439.5Q653 435 652 432Q652 428 651.5 425.0Q651 422 651 419Q650 416 650.0 412.5Q650 409 649 406Q648 405 647.5 404.0Q647 403 646 401Q646 400 645.0 399.0Q644 398 643 397L640 391Q644 381 649.5 376.0Q655 371 661 370Q668 370 674.5 371.5Q681 373 687 377Q695 381 703.0 387.5Q711 394 719 402Q727 404 734.5 405.0Q742 406 750 407Q756 408 762.5 408.0Q769 408 775 408Q781 408 786.0 407.0Q791 406 795 405ZM582 378Q590 383 596.5 388.5Q603 394 608 400Q612 406 615.5 411.5Q619 417 621 422Q624 429 625.0 435.0Q626 441 627 448Q626 455 625.0 461.0Q624 467 621 474Q619 479 615.5 484.5Q612 490 608 496Q603 502 596.5 507.5Q590 513 582 518Q577 526 571.5 532.5Q566 539 560 543Q554 548 548.5 551.5Q543 555 538 557Q532 559 525.5 560.5Q519 562 512 563Q505 562 498.5 560.5Q492 559 486 557Q481 554 475.0 551.0Q469 548 464 543Q458 539 452.5 532.5Q447 526 442 518Q433 513 426.5 507.5Q420 502 416 496Q411 490 408.0 484.5Q405 479 403 474Q400 467 399.0 461.0Q398 455 397 448Q398 441 399.0 435.0Q400 429 403 422Q405 417 408.5 411.5Q412 406 416 400Q421 394 427.0 388.5Q433 383 442 378Q447 369 452.5 363.0Q458 357 464 352Q469 348 475.0 344.5Q481 341 486 339Q492 337 498.5 335.5Q505 334 512 333Q519 334 525.5 335.5Q532 337 538 339Q543 342 548.5 345.0Q554 348 560 352Q566 357 571.5 363.0Q577 369 582 378ZM493 725Q492 729 491.0 733.5Q490 738 488 741Q487 744 483.5 747.5Q480 751 476 753Q472 756 466.0 757.5Q460 759 452 759Q454 763 456.0 767.0Q458 771 460 775Q463 777 465.0 780.0Q467 783 470 785Q472 788 474.5 789.5Q477 791 480 791Q480 789 480.5 787.0Q481 785 483 783Q484 782 485.5 780.5Q487 779 490 778Q492 776 496.0 775.0Q500 774 505 774H519Q524 775 528.0 775.5Q532 776 534 778Q537 779 538.5 780.5Q540 782 541 783Q543 785 543.5 787.0Q544 789 544 791Q547 791 549.0 789.5Q551 788 554 785Q556 783 558.5 780.0Q561 777 564 775Q566 771 568.0 767.0Q570 763 572 759Q564 759 558.0 757.5Q552 756 548 753Q544 751 540.5 747.5Q537 744 536 741Q534 737 532.5 733.0Q531 729 531 725Q532 711 533.0 699.0Q534 687 535 677Q536 667 537.0 658.5Q538 650 538 643Q537 644 535.5 645.0Q534 646 532 647Q530 648 528.5 649.0Q527 650 525 651Q523 652 520.5 653.0Q518 654 515 655Q513 657 511.5 657.0Q510 657 509 655Q504 654 499.5 652.0Q495 650 491 647Q489 645 487.5 644.0Q486 643 485 642Q486 649 487.0 657.5Q488 666 489 677Q491 687 491.5 699.0Q492 711 493 725ZM531 171Q532 166 533.0 162.0Q534 158 536 154Q537 150 540.5 147.5Q544 145 548 142Q552 139 558.0 138.0Q564 137 572 137Q570 132 568.0 128.0Q566 124 564 121Q561 118 558.5 115.0Q556 112 554 110Q551 107 549.0 106.0Q547 105 544 105Q544 107 543.5 109.0Q543 111 541 112Q540 114 538.5 115.0Q537 116 534 118Q532 119 528.0 120.0Q524 121 519 122H505Q500 121 496.0 120.0Q492 119 490 118Q487 116 485.5 115.0Q484 114 483 112Q481 111 480.5 109.0Q480 107 480 105Q477 105 474.5 106.0Q472 107 470 110Q467 112 465.0 115.0Q463 118 460 121Q458 124 456.0 128.0Q454 132 452 137Q460 137 466.0 138.0Q472 139 476 142Q480 144 483.5 147.0Q487 150 488 154Q490 157 491.5 161.5Q493 166 493 171Q492 185 491.5 197.0Q491 209 490 219Q488 229 487.0 237.5Q486 246 486 253Q486 252 487.5 250.5Q489 249 491 248Q494 245 498.5 243.5Q503 242 509 240Q511 238 512.5 238.0Q514 238 516 240Q521 242 525.0 243.5Q529 245 532 248Q534 249 535.5 250.5Q537 252 539 253Q538 246 537.0 237.5Q536 229 535 219Q534 209 533.0 197.0Q532 185 531 171ZM512 787Q508 788 504.0 789.0Q500 790 497 791Q494 792 491.5 793.5Q489 795 486 797Q484 799 483.0 801.5Q482 804 482 806Q482 811 483.0 814.5Q484 818 486 822Q489 825 491.5 828.5Q494 832 497 834Q500 838 504.0 841.0Q508 844 512 846Q517 844 520.5 841.0Q524 838 527 834Q530 832 532.5 828.5Q535 825 538 822Q540 818 541.0 814.5Q542 811 542 806Q542 804 541.0 801.5Q540 799 538 797Q535 795 532.5 793.5Q530 792 527 791Q524 790 520.5 789.0Q517 788 512 787ZM512 109Q517 108 520.5 107.0Q524 106 527 105Q530 104 532.5 102.5Q535 101 538 99Q540 96 541.0 94.0Q542 92 542 90Q542 85 541.0 81.5Q540 78 538 74Q535 70 532.5 67.0Q530 64 527 61Q524 58 520.5 55.0Q517 52 512 50Q508 52 504.0 55.0Q500 58 497 61Q494 64 491.5 67.0Q489 70 486 74Q484 78 483.0 81.5Q482 85 482 90Q482 92 483.0 94.0Q484 96 486 99Q489 101 491.5 102.5Q494 104 497 105Q500 106 504.0 107.0Q508 108 512 109ZM839 441Q840 436 841.0 432.0Q842 428 843 426Q844 423 845.5 421.5Q847 420 849 419Q850 417 852.0 416.5Q854 416 856 416Q856 413 854.5 410.5Q853 408 851 406Q848 403 845.5 401.0Q843 399 840 397Q837 394 833.0 392.0Q829 390 825 388Q825 396 823.5 402.0Q822 408 819 412Q817 417 814.0 420.0Q811 423 807 425Q803 426 798.5 427.5Q794 429 789 429Q776 428 764.0 427.0Q752 426 742 425Q731 424 722.5 423.5Q714 423 707 422Q708 423 709.0 424.5Q710 426 712 427Q714 431 716.5 435.5Q719 440 720 445Q722 447 722.0 448.5Q722 450 720 452Q719 454 718.0 456.5Q717 459 716 461Q715 463 714.0 465.0Q713 467 712 468Q711 470 709.5 471.5Q708 473 708 475Q715 474 723.5 473.0Q732 472 742 471Q752 470 764.0 469.0Q776 468 790 467Q794 468 798.5 469.0Q803 470 808 472Q811 474 814.0 477.0Q817 480 820 484Q823 488 824.0 494.0Q825 500 825 508Q830 507 833.5 504.5Q837 502 841 500Q843 497 846.0 495.0Q849 493 851 490Q854 488 855.0 485.5Q856 483 856 480Q855 480 853.0 479.5Q851 479 849 478Q848 477 846.5 475.0Q845 473 843 471Q842 468 841.0 464.0Q840 460 840 455V441ZM872 478Q876 478 880.0 477.0Q884 476 887 474Q891 471 894.0 469.0Q897 467 900 464Q903 460 906.0 456.5Q909 453 912 449Q909 444 906.0 440.0Q903 436 900 433Q897 430 894.0 427.5Q891 425 887 423Q884 420 880.0 419.0Q876 418 872 418Q869 418 866.5 419.5Q864 421 862 423Q861 425 859.5 427.5Q858 430 857 433Q855 436 854.0 440.0Q853 444 852 449Q853 453 854.5 456.5Q856 460 857 464Q858 467 859.5 469.5Q861 472 862 474Q864 476 866.5 477.0Q869 478 872 478Z" fill="#E6E1D3"/></g></svg>